<svg height="25" viewBox="0 0 25 25" width="25" xmlns="http://www.w3.org/2000/svg" xmlns:xlink="http://www.w3.org/1999/xlink"><linearGradient id="a" x1="-39.888%" x2="114.719%" y1="-114.807%" y2="132.625%"><stop offset="0" stop-color="#47f0ff"/><stop offset="1" stop-color="#2594ff"/></linearGradient><path d="m3 0h19c1.6568542 0 3 1.34314575 3 3v19c0 1.6568542-1.3431458 3-3 3h-19c-1.65685425 0-3-1.3431458-3-3v-19c0-1.65685425 1.34314575-3 3-3zm6.11607143 9.86607143h-2.94642857v8.84821427h2.94642857zm.1875-2.73214286c-.00595241-.44047839-.15773661-.80505808-.45535714-1.09375-.29762054-.28869192-.69344992-.43303571-1.1875-.43303571-.49405009 0-.89434371.14434379-1.20089286.43303571s-.45982143.65327161-.45982143 1.09375c0 .43452598.14880804.79761759.44642857 1.08928572.29762054.29166812.69047375.4375 1.17857143.4375h.01785714c.5000025 0 .90327228-.14583188 1.20982143-.4375.30654915-.29166813.45684527-.65475974.45089286-1.08928572zm4.37499997 3.98949943v-1.25735657h-2.9375l.0089286.42857147c.0059524.2857157.0089286 1.1666592.0089286 2.6428571s-.0059523 3.4017738-.0178572 5.7767857h2.9375v-4.9375c0-.3035729.0327378-.544642.0982143-.7232143.1250006-.3035729.3139868-.5580347.5669643-.7633928.2529775-.2053582.5669624-.3080357.9419643-.3080357.5119073 0 .8883916.1770815 1.1294643.53125.2410726.3541684.3616071.8437468.3616071 1.46875v4.7321428h2.9375v-5.0714286c0-1.3035779-.3095207-2.2931513-.9285714-2.96875-.6190507-.67559857-1.4374949-1.01339281-2.4553572-1.01339281-.3750018 0-.7157722.04613049-1.0223214.13839285-.3065491.09226237-.5654751.22172536-.7767857.38839286s-.3794637.3214279-.5044643.4642857c-.1187584.1357239-.2348288.2929366-.3482143.4716423z" fill="url(#a)" fill-rule="evenodd"/></svg>