<svg height="192.86" viewBox="0 0 155.16 192.86" width="155.16" xmlns="http://www.w3.org/2000/svg"><path d="m26.05 186.79 22.82-23.49h58.99l35.29-33.01v7.69l-33.26 33.04h-52.81l-13.72 15.77m36.17-37.11-13.27-2.62 27.19-17.64-1 4.95s-10.15 12.69-12.92 15.31z" fill="#b4cfe0"/><path d="m109.45 72.89a21.63 21.63 0 0 1 -32.54 28 21.63 21.63 0 1 0 32.54-28zm12.45 9.89 24.4-7.5 7.36-5.13-4.87 8.92-28.56 9.04z" fill="#47f0ff"/><g fill="none" stroke="#244178" stroke-linecap="round" stroke-linejoin="round" stroke-width="3"><path d="m16.88 170.86-15.38 13.33m25.49-22.1-5.8 5.03m19.44 24.24 17.39-20h52.81l33.25-33v-12.63l-33.91 26.62s-52.38-4.67-59.67-4.89-17.92 9.78-17.92 9.78"/><path d="m53.62 147.63 30.92-18.21s7.68-4.48 8.91 0c1.74 6.3-13.91 20.26-13.91 20.26"/><circle cx="95.23" cy="87.32" r="21.63" transform="matrix(.37784079 -.92587058 .92587058 .37784079 -21.505384 141.816613)"/><circle cx="86" cy="91.77" r="6.15" transform="matrix(.37784079 -.92587058 .92587058 .37784079 -31.461451 136.720421)"/><path d="m120.23 88.11 28.56-9.04 4.87-8.92-8.56-4.67-5.35 6.25-4.49-2.45-2.87 5.25-6.42-3.5-3.36 6.15-6.76-3.53"/></g><path d="m112.9 15.91a17.34 17.34 0 0 0 18 29.32 17.34 17.34 0 1 1 -18-29.32zm-11.92 4.49-16.78-11.71-4.35-5.73 1.53 8 19.56 13.92z" fill="#4ea8ff"/><g fill="none" stroke="#244178" stroke-linecap="round" stroke-linejoin="round" stroke-width="3"><circle cx="120.21" cy="30.41" r="17.34" transform="matrix(.99705275 -.07671903 .07671903 .99705275 -1.973779 9.301073)"/><circle cx="126.16" cy="36.08" r="4.93" transform="matrix(.99705275 -.07671903 .07671903 .99705275 -2.394397 9.772079)"/><path d="m100.94 24.88-19.56-13.92-1.53-8 7.68-1.46 2.54 6.09 4.03-.77.9 4.71 5.76-1.09 1.05 5.51 6.03-1.03"/></g></svg>