<svg height="133.09" viewBox="0 0 191.42 133.09" width="191.42" xmlns="http://www.w3.org/2000/svg"><path d="m127.68 89.72c13.07-23.56 23.5-48.72 23.5-55.21 0-13.16-33.87-32-63.68-32 0 0 40.58-4.53 67.16 22.14l4.19 8.88s-10.46 33.8-19 46.77-12.2 9.44-12.2 9.44" fill="#47f0ff"/><path d="m113.66 52.49-7.57 4.77a5.5 5.5 0 0 0 -2 6.17l2.51 7.72-6.6-4.77a5.51 5.51 0 0 0 -6.48 0l-6.52 4.77.22-11.15s-2.64-1.15-2.09.54a1.52 1.52 0 0 1 .55 1.69l-4.87 15a1.52 1.52 0 0 0 2.33 1.69l12.75-9.27a1.52 1.52 0 0 1 1.78 0l12.75 9.27a1.52 1.52 0 0 0 2.33-1.69l-4.87-15a1.52 1.52 0 0 1 .55-1.69l12.75-9.27a1.52 1.52 0 0 0 -.89-2.74z" fill="#4ea8ff"/><path d="m145.67 116.13s-3.1 6.14 3.14 6.63 17.3.91 17.3.91 1.83 4.19-2.61 5.55-28.84 0-28.84 0zm-104.05 0s3.1 6.14-3.14 6.63-17.3.91-17.3.91-1.83 4.19 2.61 5.55 28.84 0 28.84 0z" fill="#b4cfe0"/><path d="m109.38 116.26s-10.43 13.32-21.88 11.32c0 0 6.49 6.42 18.52-.62s10.32-10.7 10.32-10.7z" fill="#47f0ff"/><path d="m189.82 51.18a45.6 45.6 0 0 0 -7 0s3.13 26.65-26.13 31.07v.6c36.74-.95 33.13-31.67 33.13-31.67zm-181.82-.07s24.56 9.07 18.88 31.74c0 0 8.18.84 7.84-2.57s2.15-25.06-26.72-29.17z" fill="#b4cfe0"/><g fill="none" stroke="#244178" stroke-width="3"><path d="m98.23 32.45 4.87 15a1.52 1.52 0 0 0 1.44 1h15.77a1.52 1.52 0 0 1 .89 2.74l-12.76 9.31a1.52 1.52 0 0 0 -.55 1.69l4.87 15a1.52 1.52 0 0 1 -2.33 1.69l-12.75-9.26a1.52 1.52 0 0 0 -1.78 0l-12.76 9.26a1.52 1.52 0 0 1 -2.33-1.69l4.87-15a1.52 1.52 0 0 0 -.55-1.69l-12.76-9.26a1.52 1.52 0 0 1 .89-2.74h15.74a1.52 1.52 0 0 0 1.44-1l4.87-15a1.52 1.52 0 0 1 2.92-.05zm-45.12 83.68v13.09h-28.84c-1.77 0-4.25-1.89-3.84-3.88a3.3 3.3 0 0 1 1.23-1.67c.69-.61 10.37-8.26 9.79-8.89-3.05-3.33-6.85-6.23-10.25-9.26-2.38-2.12.62-5 3.07-5h13.56" stroke-linecap="round" stroke-linejoin="round"/><path d="m53.11 129.22-12.22-13.09" stroke-miterlimit="10"/><path d="m134.66 116.13v13.09h28.84c1.77 0 4.25-1.89 3.84-3.88a3.3 3.3 0 0 0 -1.23-1.67c-.69-.61-10.37-8.26-9.79-8.89 3.05-3.33 6.85-6.23 10.25-9.26 2.38-2.12-.62-5-3.07-5h-13.56" stroke-linecap="round" stroke-linejoin="round"/><path d="m134.66 129.22 12.21-13.09" stroke-miterlimit="10"/><path d="m57 88.73c-12.52-23.95-22.27-49.73-22.27-56.3 0-13.16 30.63-30.93 60.44-30.93s63.68 18.85 63.68 32c0 6.49-10.43 31.65-23.5 55.21m-19.01 27.55c-7.9 9.74-15.42 15.94-21.34 15.29-6 0-13.2-5.37-20.57-14.87m-22.89-61.39c-1.14-3.19-3.76-11.17-4.54-13.77m17.94 46.39c-4.29-9.38-8-18.29-11-26.14" stroke-linecap="round" stroke-linejoin="round"/><path d="m45.36 35.76a23.89 23.89 0 0 1 -.62-3.27c1.3-6 24.61-21 50.42-21 26 0 51.63 15.88 53.64 22.14-.61 4.94-8.49 27.78-21.65 54.64" stroke-linecap="round" stroke-linejoin="round"/><rect height="27.64" rx="3.54" stroke-miterlimit="10" width="111.39" x="37.83" y="88.49"/><path d="m156.71 82.85s-1.95-34.33 33.11-31.67c0 0 3.61 30.72-33.11 31.67m18.51-18.4a37 37 0 0 1 5.16-4.45m-20.49 20.28a114.45 114.45 0 0 1 11.51-13m-136.69 15.57s1.95-34.33-33.11-31.67c0 0-3.61 30.72 33.11 31.67m-18.52-18.4a37 37 0 0 0 -5.19-4.45m20.52 20.28a114.45 114.45 0 0 0 -11.52-13.01" stroke-linecap="round" stroke-linejoin="round"/></g></svg>