<svg height="183.87" viewBox="0 0 162.21 183.87" width="162.21" xmlns="http://www.w3.org/2000/svg"><path d="m27 178.15 22.8-23.49h59.01l35.28-33.01v7.68l-33.26 33.04h-52.81l-13.72 15.78" fill="#b4cfe0"/><path d="m85.54 57.24v13.49l48.78-27.49-2.81-4.93-40.87 23.36-1.08-7.4z" fill="#47f0ff"/><path d="m57.74 43.29s4.56 5.71 9.75 1.48 5.25-5.94 5.25-5.94 3.88 4.19 2 7.94-14.37 13.38-17-3.48z" fill="#4ea8ff"/><path d="m104.22 97.83s4.56 5.67 9.75 1.48 5.25-5.94 5.25-5.94 3.88 4.19 2 7.94-14.37 13.38-17-3.48z" fill="#4ea8ff"/><path d="m80.22 141.91-13.27-2.62 27.19-17.64-1 4.95s-10.14 12.69-12.92 15.31z" fill="#b4cfe0"/><g fill="none" stroke="#244178" stroke-linecap="round" stroke-linejoin="round" stroke-width="3"><path d="m16.88 161.86-15.38 13.33"/><path d="m26.99 153.09-5.8 5.04"/><path d="m40.63 182.37 17.39-20h52.81l33.25-33v-12.64l-33.91 26.62s-22.72-2-40.32-3.47c-9.12-.75-16.87-1.34-19.36-1.42-7.29-.22-17.92 9.78-17.92 9.78"/><path d="m79.53 140.69s15.65-14 13.91-20.26c-1.24-4.48-8.91 0-8.91 0l-30.91 18.2"/><circle cx="66.1" cy="43.29" r="8.95"/><circle cx="111.98" cy="97.42" r="8.95"/><path d="m88.44 55.48-21.55 13.13 2.19 23.14 70.08-40.04-7.65-13.4"/><path d="m146.14 3.39 3.07-1.89 11.5 20.13-70.07 40.04-2.2-23.15 40.53-24.69"/><path d="m134.32 10.75 7.39-4.64"/></g></svg>